<svg width="184" height="69" viewBox="0 0 184 69" fill="none" xmlns="http://www.w3.org/2000/svg">
<g id="Google Play Black Border">
<rect id="Body" x="0.847107" y="0.500244" width="182.444" height="67.9996" rx="10.2641" fill="#F4F4F4"/>
<g id="Google Play logo" filter="url(#filter0_ii_1_416)">
<path id="Vector" d="M19.0579 17.7188C18.6637 18.1377 18.4307 18.7877 18.4307 19.6296V49.7072C18.4307 50.5504 18.6637 51.1991 19.0579 51.618L19.1581 51.7159L35.9416 34.8669V34.6684V34.4698L19.1581 17.6195L19.0579 17.7188Z" fill="url(#paint0_linear_1_416)"/>
<path id="Vector_2" d="M41.5347 40.4844L35.9412 34.8663V34.6677V34.4692L41.5361 28.8524L41.6621 28.9245L48.2907 32.7053C50.1832 33.7851 50.1832 35.5517 48.2907 36.6329L41.6621 40.4137L41.5347 40.4844Z" fill="url(#paint1_linear_1_416)"/>
<g id="Vector_3" filter="url(#filter1_i_1_416)">
<path d="M41.6614 40.4131L35.9391 34.6685L19.0568 51.618C19.6799 52.2817 20.7109 52.3633 21.8718 51.7024L41.6614 40.4131Z" fill="url(#paint2_linear_1_416)"/>
</g>
<path id="Vector_4" d="M41.6614 28.924L21.8718 17.636C20.7109 16.9737 19.6799 17.0567 19.0568 17.7203L35.9405 34.6699L41.6614 28.924Z" fill="url(#paint3_linear_1_416)"/>
</g>
<g id="Group 147">
<path id="Google Play" d="M92.2758 36.3141C89.2664 36.3141 86.8137 38.6019 86.8137 41.7529C86.8137 44.8848 89.2664 47.1918 92.2758 47.1918C95.2864 47.1918 97.7391 44.8848 97.7391 41.7529C97.7378 38.6019 95.2851 36.3141 92.2758 36.3141ZM92.2758 45.051C90.6265 45.051 89.205 43.6916 89.205 41.7542C89.205 39.7963 90.6278 38.4574 92.2758 38.4574C93.925 38.4574 95.3465 39.7963 95.3465 41.7542C95.3465 43.6903 93.925 45.051 92.2758 45.051ZM80.3587 36.3141C77.3494 36.3141 74.8967 38.6019 74.8967 41.7529C74.8967 44.8848 77.3494 47.1918 80.3587 47.1918C83.3693 47.1918 85.8221 44.8848 85.8221 41.7529C85.8221 38.6019 83.3693 36.3141 80.3587 36.3141ZM80.3587 45.051C78.7095 45.051 77.288 43.6916 77.288 41.7542C77.288 39.7963 78.7108 38.4574 80.3587 38.4574C82.008 38.4574 83.4295 39.7963 83.4295 41.7542C83.4308 43.6903 82.008 45.051 80.3587 45.051ZM66.1847 37.9842V40.2912H71.7095C71.5444 41.5892 71.112 42.5368 70.4518 43.1954C69.6483 43.9985 68.3905 44.8848 66.1847 44.8848C62.7839 44.8848 60.1251 42.1442 60.1251 38.7451C60.1251 35.346 62.7839 32.6055 66.1847 32.6055C68.0195 32.6055 69.3591 33.3267 70.3481 34.2539L71.9769 32.6259C70.5951 31.3075 68.7616 30.2985 66.1847 30.2985C61.5262 30.2985 57.6097 34.0889 57.6097 38.7451C57.6097 43.4013 61.5262 47.1918 66.1847 47.1918C68.6989 47.1918 70.5963 46.3669 72.0793 44.8221C73.6044 43.2977 74.0791 41.1544 74.0791 39.4242C74.0791 38.8896 74.0381 38.3947 73.955 37.9829L66.1847 37.9842ZM124.155 39.7758C123.702 38.561 122.32 36.3141 119.497 36.3141C116.693 36.3141 114.363 38.5188 114.363 41.7529C114.363 44.8016 116.673 47.1918 119.764 47.1918C122.258 47.1918 123.701 45.6674 124.3 44.7812L122.444 43.5445C121.827 44.4512 120.981 45.0485 119.764 45.0485C118.548 45.0485 117.682 44.4922 117.126 43.4L124.402 40.3922L124.155 39.7758ZM116.734 41.5892C116.673 39.4868 118.363 38.4165 119.58 38.4165C120.528 38.4165 121.331 38.8909 121.6 39.57L116.734 41.5892ZM110.819 46.8631H113.209V30.8765H110.819V46.8631ZM106.901 37.5302H106.82C106.283 36.8908 105.252 36.3141 103.955 36.3141C101.233 36.3141 98.7397 38.7042 98.7397 41.7747C98.7397 44.8234 101.233 47.193 103.955 47.193C105.253 47.193 106.283 46.6163 106.82 45.9577H106.901V46.7403C106.901 48.821 105.788 49.9336 103.996 49.9336C102.532 49.9336 101.625 48.8837 101.254 47.9974L99.1721 48.8632C99.7696 50.3044 101.356 52.0769 103.996 52.0769C106.799 52.0769 109.17 50.4285 109.17 46.4104V36.6453H106.903L106.901 37.5302ZM104.161 45.051C102.512 45.051 101.131 43.6699 101.131 41.7747C101.131 39.8577 102.512 38.4574 104.161 38.4574C105.788 38.4574 107.066 39.8577 107.066 41.7747C107.066 43.6699 105.788 45.051 104.161 45.051ZM135.356 30.8765H129.635V46.8631H132.021V40.8066H135.354C138 40.8066 140.603 38.8922 140.603 35.8422C140.603 32.7922 138.002 30.8765 135.356 30.8765ZM135.417 38.5814H132.021V33.1017H135.417C137.202 33.1017 138.215 34.5787 138.215 35.8422C138.215 37.0801 137.202 38.5814 135.417 38.5814ZM150.172 36.2859C148.443 36.2859 146.653 37.0468 145.913 38.7336L148.031 39.6173C148.484 38.7336 149.329 38.4446 150.213 38.4446C151.448 38.4446 152.703 39.185 152.723 40.5009V40.6659C152.291 40.4191 151.364 40.0495 150.233 40.0495C147.95 40.0495 145.623 41.304 145.623 43.6481C145.623 45.7876 147.497 47.1649 149.595 47.1649C151.199 47.1649 152.085 46.4449 152.64 45.6009H152.722V46.835H155.028V40.7056C155.029 37.8691 152.908 36.2859 150.172 36.2859ZM149.883 45.0472C149.102 45.0472 148.011 44.6559 148.011 43.6891C148.011 42.455 149.37 41.9818 150.543 41.9818C151.591 41.9818 152.086 42.2082 152.723 42.5164C152.538 43.9985 151.262 45.0472 149.883 45.0472ZM163.423 36.635L160.687 43.5663H160.605L157.764 36.635H155.193L159.452 46.3222L157.024 51.7111H159.513L166.078 36.635H163.423ZM141.921 46.8631H144.307V30.8765H141.921V46.8631Z" fill="#090909"/>
<g id="Get it on">
<path d="M65.8877 21.4205C65.8877 22.4727 65.5707 23.3103 64.9353 23.9356C64.2144 24.6789 63.2735 25.0506 62.1179 25.0506C61.0109 25.0506 60.0688 24.6739 59.2954 23.9205C58.5207 23.1659 58.1334 22.2317 58.1334 21.1166C58.1334 20.0004 58.5207 19.0661 59.2954 18.3128C60.0688 17.5581 61.0109 17.1814 62.1179 17.1814C62.6676 17.1814 63.193 17.2869 63.6915 17.4966C64.1914 17.7075 64.5915 17.9875 64.8906 18.3379L64.2169 19.0009C63.7094 18.4044 63.0102 18.1068 62.1166 18.1068C61.3087 18.1068 60.6108 18.3856 60.0215 18.9431C59.4321 19.5006 59.1381 20.2251 59.1381 21.1154C59.1381 22.0056 59.4321 22.7302 60.0215 23.2877C60.6108 23.8452 61.3087 24.1239 62.1166 24.1239C62.9731 24.1239 63.6877 23.8439 64.2591 23.2826C64.6298 22.9173 64.8446 22.4087 64.9021 21.757H62.1166V20.8517H65.8327C65.8711 21.0488 65.8877 21.2384 65.8877 21.4205Z" fill="#090909"/>
<path d="M71.7809 18.2739H68.2885V20.6622H71.4383V21.5675H68.2885V23.9558H71.7809V24.8824H67.3029V17.3485H71.7809V18.2739Z" fill="#090909"/>
<path d="M75.9366 24.8824H74.951V18.2739H72.8086V17.3485H78.0791V18.2739H75.9366V24.8824Z" fill="#090909"/>
<path d="M81.8923 24.8824V17.3485H82.8779V24.8824H81.8923Z" fill="#090909"/>
<path d="M87.2487 24.8824H86.2631V18.2739H84.1206V17.3485H89.3912V18.2739H87.2487V24.8824Z" fill="#090909"/>
<path d="M99.3683 23.9093C98.614 24.6702 97.677 25.0507 96.5559 25.0507C95.4348 25.0507 94.4978 24.6702 93.7449 23.9093C92.9907 23.1484 92.6148 22.2167 92.6148 21.1154C92.6148 20.0142 92.9907 19.0825 93.7449 18.3216C94.4978 17.5607 95.4348 17.179 96.5559 17.179C97.6706 17.179 98.6064 17.5619 99.3631 18.3266C100.12 19.0913 100.498 20.0205 100.498 21.1154C100.498 22.2167 100.121 23.1484 99.3683 23.9093ZM94.4723 23.2777C95.0398 23.8427 95.734 24.124 96.5559 24.124C97.3779 24.124 98.0733 23.8415 98.6396 23.2777C99.2072 22.7126 99.4923 21.9919 99.4923 21.1154C99.4923 20.239 99.2072 19.5182 98.6396 18.9532C98.0733 18.3882 97.3779 18.1069 96.5559 18.1069C95.734 18.1069 95.0398 18.3894 94.4723 18.9532C93.906 19.5182 93.6209 20.239 93.6209 21.1154C93.6209 21.9919 93.906 22.7126 94.4723 23.2777Z" fill="#090909"/>
<path d="M101.881 24.8824V17.3485H103.081L106.808 23.2086H106.85L106.808 21.7571V17.3485H107.794V24.8824H106.765L102.865 18.7372H102.822L102.865 20.1888V24.8824H101.881Z" fill="#090909"/>
<path d="M65.8877 21.4205C65.8877 22.4727 65.5707 23.3103 64.9353 23.9356C64.2144 24.6789 63.2735 25.0506 62.1179 25.0506C61.0109 25.0506 60.0688 24.6739 59.2954 23.9205C58.5207 23.1659 58.1334 22.2317 58.1334 21.1166C58.1334 20.0004 58.5207 19.0661 59.2954 18.3128C60.0688 17.5581 61.0109 17.1814 62.1179 17.1814C62.6676 17.1814 63.193 17.2869 63.6915 17.4966C64.1914 17.7075 64.5915 17.9875 64.8906 18.3379L64.2169 19.0009C63.7094 18.4044 63.0102 18.1068 62.1166 18.1068C61.3087 18.1068 60.6108 18.3856 60.0215 18.9431C59.4321 19.5006 59.1381 20.2251 59.1381 21.1154C59.1381 22.0056 59.4321 22.7302 60.0215 23.2877C60.6108 23.8452 61.3087 24.1239 62.1166 24.1239C62.9731 24.1239 63.6877 23.8439 64.2591 23.2826C64.6298 22.9173 64.8446 22.4087 64.9021 21.757H62.1166V20.8517H65.8327C65.8711 21.0488 65.8877 21.2384 65.8877 21.4205Z" stroke="white" stroke-width="0.0524781" stroke-miterlimit="10"/>
<path d="M71.7809 18.2739H68.2885V20.6622H71.4383V21.5675H68.2885V23.9558H71.7809V24.8824H67.3029V17.3485H71.7809V18.2739Z" stroke="white" stroke-width="0.0524781" stroke-miterlimit="10"/>
<path d="M75.9366 24.8824H74.951V18.2739H72.8086V17.3485H78.0791V18.2739H75.9366V24.8824Z" stroke="white" stroke-width="0.0524781" stroke-miterlimit="10"/>
<path d="M81.8923 24.8824V17.3485H82.8779V24.8824H81.8923Z" stroke="white" stroke-width="0.0524781" stroke-miterlimit="10"/>
<path d="M87.2487 24.8824H86.2631V18.2739H84.1206V17.3485H89.3912V18.2739H87.2487V24.8824Z" stroke="white" stroke-width="0.0524781" stroke-miterlimit="10"/>
<path d="M99.3683 23.9093C98.614 24.6702 97.677 25.0507 96.5559 25.0507C95.4348 25.0507 94.4978 24.6702 93.7449 23.9093C92.9907 23.1484 92.6148 22.2167 92.6148 21.1154C92.6148 20.0142 92.9907 19.0825 93.7449 18.3216C94.4978 17.5607 95.4348 17.179 96.5559 17.179C97.6706 17.179 98.6064 17.5619 99.3631 18.3266C100.12 19.0913 100.498 20.0205 100.498 21.1154C100.498 22.2167 100.121 23.1484 99.3683 23.9093ZM94.4723 23.2777C95.0398 23.8427 95.734 24.124 96.5559 24.124C97.3779 24.124 98.0733 23.8415 98.6396 23.2777C99.2072 22.7126 99.4923 21.9919 99.4923 21.1154C99.4923 20.239 99.2072 19.5182 98.6396 18.9532C98.0733 18.3882 97.3779 18.1069 96.5559 18.1069C95.734 18.1069 95.0398 18.3894 94.4723 18.9532C93.906 19.5182 93.6209 20.239 93.6209 21.1154C93.6209 21.9919 93.906 22.7126 94.4723 23.2777Z" stroke="white" stroke-width="0.0524781" stroke-miterlimit="10"/>
<path d="M101.881 24.8824V17.3485H103.081L106.808 23.2086H106.85L106.808 21.7571V17.3485H107.794V24.8824H106.765L102.865 18.7372H102.822L102.865 20.1888V24.8824H101.881Z" stroke="white" stroke-width="0.0524781" stroke-miterlimit="10"/>
</g>
</g>
</g>
<defs>
<filter id="filter0_ii_1_416" x="18.4307" y="17.179" width="31.2794" height="34.98" filterUnits="userSpaceOnUse" color-interpolation-filters="sRGB">
<feFlood flood-opacity="0" result="BackgroundImageFix"/>
<feBlend mode="normal" in="SourceGraphic" in2="BackgroundImageFix" result="shape"/>
<feColorMatrix in="SourceAlpha" type="matrix" values="0 0 0 0 0 0 0 0 0 0 0 0 0 0 0 0 0 0 127 0" result="hardAlpha"/>
<feOffset dy="-0.203999"/>
<feComposite in2="hardAlpha" operator="arithmetic" k2="-1" k3="1"/>
<feColorMatrix type="matrix" values="0 0 0 0 0 0 0 0 0 0 0 0 0 0 0 0 0 0 0.12 0"/>
<feBlend mode="normal" in2="shape" result="effect1_innerShadow_1_416"/>
<feColorMatrix in="SourceAlpha" type="matrix" values="0 0 0 0 0 0 0 0 0 0 0 0 0 0 0 0 0 0 127 0" result="hardAlpha"/>
<feOffset dy="0.203999"/>
<feComposite in2="hardAlpha" operator="arithmetic" k2="-1" k3="1"/>
<feColorMatrix type="matrix" values="0 0 0 0 1 0 0 0 0 1 0 0 0 0 1 0 0 0 0.25 0"/>
<feBlend mode="normal" in2="effect1_innerShadow_1_416" result="effect2_innerShadow_1_416"/>
</filter>
<filter id="filter1_i_1_416" x="19.0568" y="34.6685" width="22.6046" height="17.4905" filterUnits="userSpaceOnUse" color-interpolation-filters="sRGB">
<feFlood flood-opacity="0" result="BackgroundImageFix"/>
<feBlend mode="normal" in="SourceGraphic" in2="BackgroundImageFix" result="shape"/>
<feColorMatrix in="SourceAlpha" type="matrix" values="0 0 0 0 0 0 0 0 0 0 0 0 0 0 0 0 0 0 127 0" result="hardAlpha"/>
<feOffset dy="-0.203999"/>
<feComposite in2="hardAlpha" operator="arithmetic" k2="-1" k3="1"/>
<feColorMatrix type="matrix" values="0 0 0 0 0 0 0 0 0 0 0 0 0 0 0 0 0 0 0.08 0"/>
<feBlend mode="normal" in2="shape" result="effect1_innerShadow_1_416"/>
</filter>
<linearGradient id="paint0_linear_1_416" x1="34.4538" y1="19.3113" x2="11.6306" y2="42.0458" gradientUnits="userSpaceOnUse">
<stop stop-color="#00A0FF"/>
<stop offset="0.0066" stop-color="#00A1FF"/>
<stop offset="0.2601" stop-color="#00BEFF"/>
<stop offset="0.5122" stop-color="#00D2FF"/>
<stop offset="0.7604" stop-color="#00DFFF"/>
<stop offset="1" stop-color="#00E3FF"/>
</linearGradient>
<linearGradient id="paint1_linear_1_416" x1="50.7542" y1="34.6677" x2="17.9759" y2="34.6677" gradientUnits="userSpaceOnUse">
<stop stop-color="#FFE000"/>
<stop offset="0.4087" stop-color="#FFBD00"/>
<stop offset="0.7754" stop-color="#FFA500"/>
<stop offset="1" stop-color="#FF9C00"/>
</linearGradient>
<linearGradient id="paint2_linear_1_416" x1="38.5538" y1="37.7881" x2="7.60266" y2="68.619" gradientUnits="userSpaceOnUse">
<stop stop-color="#FF3A44"/>
<stop offset="1" stop-color="#C31162"/>
</linearGradient>
<linearGradient id="paint3_linear_1_416" x1="14.8049" y1="7.7078" x2="28.6254" y2="21.4746" gradientUnits="userSpaceOnUse">
<stop stop-color="#32A071"/>
<stop offset="0.0685" stop-color="#2DA771"/>
<stop offset="0.4762" stop-color="#15CF74"/>
<stop offset="0.8009" stop-color="#06E775"/>
<stop offset="1" stop-color="#00F076"/>
</linearGradient>
</defs>
</svg>
